<svg xmlns="http://www.w3.org/2000/svg" xmlns:xlink="http://www.w3.org/1999/xlink"
    viewBox="0 0 107 61" width="107" height="61" preserveAspectRatio="xMidYMid meet"
    style="width: 100%;/* height: 100%; */transform: translate3d(0px, 0px, 0px);content-visibility: visible;">
    <defs>
        <clipPath id="__lottie_element_2">
            <rect width="107" height="61" x="0" y="0"></rect>
        </clipPath>
    </defs>
    <g clip-path="url(#__lottie_element_2)">
        <g style="display: block;"
            transform="matrix(0.1550000011920929,0,0,0.1550000011920929,4.389060974121094,1.9587059020996094)"
            opacity="1">
            <g opacity="1" transform="matrix(1,0,0,1,321.3479919433594,167.27200317382812)">
                <path fill="rgb(102,107,177)" fill-opacity="1"
                    d=" M308.68499755859375,160.6929931640625 C308.68499755859375,157.54800415039062 308.5880126953125,153.1199951171875 308.3280029296875,147.822998046875 C305.60198974609375,95.45899963378906 290.0950012207031,44.56100082397461 263.1629943847656,-0.42800000309944153 C252.24400329589844,-17.854999542236328 239.82400512695312,-34.29600143432617 226.04299926757812,-49.56100082397461 C204.61399841308594,-72.66300201416016 124.96800231933594,-148.03700256347656 -0.0010000000474974513,-148.03700256347656 C-170.4080047607422,-147.84800720214844 -308.50299072265625,-9.751999855041504 -308.6929931640625,160.65499877929688 C-308.6929931640625,160.65499877929688 -321.3489990234375,160.65499877929688 -321.3489990234375,160.65499877929688 C-321.14898681640625,-16.738000869750977 -177.39300537109375,-160.4929962158203 -0.0010000000474974513,-160.6929931640625 C130.0959930419922,-160.6929931640625 213.01699829101562,-82.24099731445312 235.3280029296875,-58.17300033569336 C249.7169952392578,-42.30400085449219 262.65399169921875,-25.176000595092773 273.9840087890625,-6.995999813079834 C302.0190124511719,39.79600143432617 318.1549987792969,92.74700164794922 320.9779968261719,147.2209930419922 C321.2439880371094,152.718994140625 321.3280029296875,157.33399963378906 321.3479919433594,160.60899353027344 C321.3479919433594,160.60899353027344 308.68499755859375,160.6929931640625 308.68499755859375,160.6929931640625z"></path>
            </g>
            <g opacity="1" transform="matrix(1,0,0,1,251.08999633789062,88.60399627685547)">
                <path fill="rgb(230,168,177)" fill-opacity="1"
                    d=" M-190.33700561523438,88.3479995727539 C-190.33700561523438,88.3479995727539 -212.19500732421875,75.57499694824219 -212.19500732421875,75.57499694824219 C-190.072998046875,38.66400146484375 -160.96299743652344,6.421000003814697 -126.49800109863281,-19.347000122070312 C-69.76399993896484,-63.395999908447266 -0.15700000524520874,-87.63500213623047 71.66500091552734,-88.35399627685547 C71.66500091552734,-88.35399627685547 72.31400299072266,-88.35399627685547 72.31400299072266,-88.35399627685547 C120.73999786376953,-87.88700103759766 168.47999572753906,-76.84700012207031 212.19500732421875,-56.00699996948242 C212.19500732421875,-56.00699996948242 201.36700439453125,-33.125 201.36700439453125,-33.125 C160.84300231933594,-52.40800094604492 116.5989990234375,-62.6150016784668 71.7239990234375,-63.03499984741211 C5.375999927520752,-62.316001892089844 -58.90599822998047,-39.862998962402344 -111.27400207519531,0.8820000290870667 C-143.08099365234375,24.614999771118164 -169.9510040283203,54.327999114990234 -190.37600708007812,88.35399627685547"></path>
            </g>
            <g opacity="1" transform="matrix(1,0,0,1,43.18199920654297,323.6990051269531)">
                <path fill="rgb(74,50,141)" fill-opacity="1"
                    d=" M0,-4.2789998054504395 C2.36299991607666,-4.2789998054504395 4.2789998054504395,-2.36299991607666 4.2789998054504395,0 C4.2789998054504395,2.364000082015991 2.36299991607666,4.28000020980835 0,4.28000020980835 C-2.36299991607666,4.28000020980835 -4.2789998054504395,2.364000082015991 -4.2789998054504395,0 C-4.2789998054504395,-2.36299991607666 -2.36299991607666,-4.2789998054504395 0,-4.2789998054504395z"></path>
            </g>
            <g opacity="1" transform="matrix(1,0,0,1,595.1829833984375,323.6990051269531)">
                <path fill="rgb(74,50,141)" fill-opacity="1"
                    d=" M0,-4.2789998054504395 C2.36299991607666,-4.2789998054504395 4.2789998054504395,-2.36299991607666 4.2789998054504395,0 C4.2789998054504395,2.364000082015991 2.36299991607666,4.28000020980835 0,4.28000020980835 C-2.36299991607666,4.28000020980835 -4.2789998054504395,2.364000082015991 -4.2789998054504395,0 C-4.2789998054504395,-2.36299991607666 -2.36299991607666,-4.2789998054504395 0,-4.2789998054504395z"></path>
            </g>
            <g opacity="1" transform="matrix(1,0,0,1,60.51900100708008,231.19500732421875)">
                <path fill="rgb(74,50,141)" fill-opacity="1"
                    d=" M0,-4.28000020980835 C2.36299991607666,-4.28000020980835 4.2789998054504395,-2.36299991607666 4.2789998054504395,0 C4.2789998054504395,2.364000082015991 2.36299991607666,4.28000020980835 0,4.28000020980835 C-2.36299991607666,4.28000020980835 -4.2789998054504395,2.364000082015991 -4.2789998054504395,0 C-4.2789998054504395,-2.36299991607666 -2.36299991607666,-4.28000020980835 0,-4.28000020980835z"></path>
            </g>
            <g opacity="1" transform="matrix(1,0,0,1,586.6179809570312,231.19500732421875)">
                <path fill="rgb(74,50,141)" fill-opacity="1"
                    d=" M0,-4.28000020980835 C2.36299991607666,-4.28000020980835 4.2789998054504395,-2.36299991607666 4.2789998054504395,0 C4.2789998054504395,2.364000082015991 2.36299991607666,4.28000020980835 0,4.28000020980835 C-2.36299991607666,4.28000020980835 -4.2789998054504395,2.364000082015991 -4.2789998054504395,0 C-4.2789998054504395,-2.36299991607666 -2.36299991607666,-4.28000020980835 0,-4.28000020980835z"></path>
            </g>
            <g opacity="1" transform="matrix(1,0,0,1,118.33499908447266,144.47500610351562)">
                <path fill="rgb(74,50,141)" fill-opacity="1"
                    d=" M0,-4.2789998054504395 C2.36299991607666,-4.2789998054504395 4.2789998054504395,-2.36299991607666 4.2789998054504395,0 C4.2789998054504395,2.364000082015991 2.36299991607666,4.28000020980835 0,4.28000020980835 C-2.36299991607666,4.28000020980835 -4.2789998054504395,2.364000082015991 -4.2789998054504395,0 C-4.2789998054504395,-2.36299991607666 -2.36299991607666,-4.2789998054504395 0,-4.2789998054504395z"></path>
            </g>
            <g opacity="1" transform="matrix(1,0,0,1,531.3900146484375,144.47500610351562)">
                <path fill="rgb(74,50,141)" fill-opacity="1"
                    d=" M0,-4.2789998054504395 C2.36299991607666,-4.2789998054504395 4.2789998054504395,-2.36299991607666 4.2789998054504395,0 C4.2789998054504395,2.364000082015991 2.36299991607666,4.28000020980835 0,4.28000020980835 C-2.36299991607666,4.28000020980835 -4.2789998054504395,2.364000082015991 -4.2789998054504395,0 C-4.2789998054504395,-2.36299991607666 -2.36299991607666,-4.2789998054504395 0,-4.2789998054504395z"></path>
            </g>
            <g opacity="1" transform="matrix(1,0,0,1,216.61599731445312,80.88200378417969)">
                <path fill="rgb(74,50,141)" fill-opacity="1"
                    d=" M0,-4.2789998054504395 C2.36299991607666,-4.2789998054504395 4.2789998054504395,-2.36299991607666 4.2789998054504395,0 C4.2789998054504395,2.364000082015991 2.36299991607666,4.28000020980835 0,4.28000020980835 C-2.36299991607666,4.28000020980835 -4.2789998054504395,2.364000082015991 -4.2789998054504395,0 C-4.2789998054504395,-2.36299991607666 -2.36299991607666,-4.2789998054504395 0,-4.2789998054504395z"></path>
            </g>
            <g opacity="1" transform="matrix(1,0,0,1,321.3420104980469,46.194000244140625)">
                <path fill="rgb(74,50,141)" fill-opacity="1"
                    d=" M0,-4.2789998054504395 C2.36299991607666,-4.2789998054504395 4.2789998054504395,-2.36299991607666 4.2789998054504395,0 C4.2789998054504395,2.364000082015991 2.36299991607666,4.28000020980835 0,4.28000020980835 C-2.36299991607666,4.28000020980835 -4.2789998054504395,2.364000082015991 -4.2789998054504395,0 C-4.2789998054504395,-2.36299991607666 -2.36299991607666,-4.2789998054504395 0,-4.2789998054504395z"></path>
            </g>
            <g opacity="1" transform="matrix(1,0,0,1,459.01800537109375,80.88200378417969)">
                <path fill="rgb(74,50,141)" fill-opacity="1"
                    d=" M0,-4.2789998054504395 C2.36299991607666,-4.2789998054504395 4.2789998054504395,-2.36299991607666 4.2789998054504395,0 C4.2789998054504395,2.364000082015991 2.36299991607666,4.28000020980835 0,4.28000020980835 C-2.36299991607666,4.28000020980835 -4.2789998054504395,2.364000082015991 -4.2789998054504395,0 C-4.2789998054504395,-2.36299991607666 -2.36299991607666,-4.2789998054504395 0,-4.2789998054504395z"></path>
            </g>
        </g>
        <g style="display: block;"
            transform="matrix(0.1550000011920929,0,0,0.1550000011920929,47.819114685058594,46.75311279296875)"
            opacity="1">
            <g opacity="1" transform="matrix(1,0,0,1,38.96699905395508,38.96699905395508)">
                <path fill="rgb(167,154,200)" fill-opacity="1"
                    d=" M0,-38.96699905395508 C21.520999908447266,-38.96699905395508 38.96699905395508,-21.520999908447266 38.96699905395508,0 C38.96699905395508,21.52199935913086 21.520999908447266,38.96799850463867 0,38.96799850463867 C-21.520999908447266,38.96799850463867 -38.96699905395508,21.52199935913086 -38.96699905395508,0 C-38.96699905395508,-21.520999908447266 -21.520999908447266,-38.96699905395508 0,-38.96699905395508z"></path>
            </g>
        </g>
        <g style="display: block;"
            transform="matrix(0.15045440196990967,0.037262238562107086,-0.037262238562107086,0.15045440196990967,43.87946319580078,0.9940452575683594)"
            opacity="1">
            <g opacity="1" transform="matrix(1,0,0,1,80.48200225830078,163.7449951171875)">
                <path fill="rgb(102,107,177)" fill-opacity="1"
                    d=" M46.80799865722656,151.04200744628906 C44.60900115966797,146.35899353027344 44.604000091552734,140.9409942626953 46.79399871826172,136.25399780273438 C46.79399871826172,136.25399780273438 -80.23200225830078,-163.49400329589844 -80.23200225830078,-163.49400329589844 C-80.23200225830078,-163.49400329589844 63.60200119018555,126.54900360107422 63.60200119018555,126.54900360107422 C73.177001953125,127.4219970703125 80.23200225830078,135.89100646972656 79.35900115966797,145.46600341796875 C78.80599975585938,151.53399658203125 75.12100219726562,156.87100219726562 69.64199829101562,159.53799438476562 C60.9900016784668,163.49400329589844 50.77000045776367,159.6909942626953 46.80799865722656,151.04200744628906z"></path>
            </g>
        </g>
    </g>
</svg>