<svg width="16" height="16" fill="none" xmlns="http://www.w3.org/2000/svg"><g clip-path="url(#a)"><path d="M6.236 6.74a.469.469 0 1 1 0-.938.469.469 0 0 1 0 .938Zm3.75 2.812a.469.469 0 1 0 0 .937.469.469 0 0 0 0-.937Zm4.688-1.406c0 .612-.44 1.07-.829 1.475-.22.231-.45.469-.536.678-.08.192-.084.51-.089.817-.008.572-.018 1.22-.468 1.67-.45.451-1.099.46-1.67.47-.308.004-.626.009-.818.088-.209.086-.447.315-.678.536-.404.388-.863.828-1.475.828-.612 0-1.07-.44-1.475-.828-.231-.221-.47-.45-.678-.536-.192-.08-.51-.084-.817-.089-.572-.009-1.22-.018-1.67-.469-.451-.45-.46-1.098-.47-1.67-.004-.308-.009-.625-.088-.817-.087-.209-.315-.447-.536-.678-.388-.405-.828-.863-.828-1.475 0-.612.44-1.07.828-1.476.221-.23.45-.468.536-.678.08-.191.084-.509.089-.816.008-.572.018-1.22.468-1.67.451-.451 1.1-.46 1.67-.47.309-.004.626-.009.818-.089.209-.086.447-.314.678-.535.405-.389.863-.829 1.475-.829.612 0 1.07.44 1.475.829.231.22.47.45.678.535.192.08.51.085.817.09.572.008 1.22.018 1.67.468.451.45.46 1.099.47 1.67.004.308.009.626.088.817.087.21.315.448.536.678.388.405.829.864.829 1.476Zm-8.438-.469a1.406 1.406 0 1 0 0-2.812 1.406 1.406 0 0 0 0 2.812Zm4.55-1.543a.469.469 0 1 0-.663-.664l-4.687 4.688a.47.47 0 0 0 .663.663l4.687-4.687Zm.606 3.887a1.406 1.406 0 1 0-2.813 0 1.406 1.406 0 0 0 2.813 0Z" fill="#fff"/></g><defs><clipPath id="a"><path fill="#fff" transform="translate(.615 .646)" d="M0 0h15v15H0z"/></clipPath></defs></svg>