<svg xmlns="http://www.w3.org/2000/svg" width="419" height="321" viewBox="0 0 4190 3210"><defs><clipPath id="b"><path d="M0 0h57v156H0" fill="none"/></clipPath><clipPath id="c"><path d="M0 0h356v224H0" fill="none"/></clipPath><clipPath id="d"><path d="M0 0h295v282H0" fill="none"/></clipPath><clipPath id="e"><path d="m23062-11646-40-5v-125l40-8" fill="#ea9c9c" transform="translate(-23022 11784)"/></clipPath><clipPath id="f"><path d="m24159-11655-35-2-14 1v-128l30 5h4l7 1 8 1v122m-30-126v10l15 1v-9l-16-2" fill="#de8c8c" transform="translate(-24110 11784)"/></clipPath><clipPath id="g"><path d="m24627-11703-17-2v-10l17 3v9" fill="#ffcd9f" transform="translate(-24610 11714)"/></clipPath><clipPath id="h"><path d="M24540-10059v-10a7 7 0 00-3-6l-20-17a327 327 0 00-23-30v-30l34 3h3l28 2v87l-19 1m-23-90v14l22 1v-14l-22-2" fill="#de8c8c" transform="translate(-24494 10151)"/></clipPath><clipPath id="i"><path d="M24090-10122s-2-4-15-5v-23h2l14-1v29" fill="#ea9c9c" transform="translate(-24075 10151)"/></clipPath><clipPath id="j"><path d="m25147-10090-22-2v-15l22 2v14" fill="#ffcd9f" transform="translate(-25125 10107)"/></clipPath><clipPath id="a"><path d="M0 0h4190v3210H0"/></clipPath></defs><g clip-path="url(#a)"><path d="M537 1285a13 13 0 01-12-20l91-158a14 14 0 01 24 0l90 158a13 13 0 01-11 20" fill="#666bb1"/><path d="M725 1275a8 8 0 01-6 4H537a8 8 0 01-7-11l91-158a8 8 0 01 5-4 7 7 0 01 2 0 8 8 0 01 6 4l91 158a8 8 0 01 0 7" fill="#ea9c9c"/><path d="M624 1260a331 331 0 00-41 19h-46a8 8 0 01-7-11l91-158a8 8 0 01 5-4c-8 16-19 49 9 75 37 36 33 62-11 80" fill="#ffcd9f" opacity=".1"/><path d="m727 1154 78-78-14-14-78 78zm49 49 78-79-14-13-78 78zm-95 120a144 144 0 01-17 0c-21-5-33-14-36-26-4-21 25-43 29-46l8 12c-8 6-25 21-23 31 1 6 10 11 25 14 0 0 53 7 72-19 23-30 90-30 112-30h3v15h-3c-68 0-92 13-100 24-17 22-50 25-70 25" fill="#f6d046"/><path d="m702 1120-33 32 5 50 40 40 50 4 31-32" fill="#666bb1"/><path d="m714 1242-40-40-32 40 32 31 40-31zm117-43-29 30-114-116 29-29" fill="#4a50a5"/><path d="M645 1150h-22l-28 63 34-9-14 32-8-7 1 33 28-22h-14l30-52-28 7" fill="#666bb1"/><path d="M740 1806h-50a20 20 0 11-40 0h-50a26 26 0 00-27 25v194a26 26 0 00 26 26H740a26 26 0 00 26-26v-194a26 26 0 00-26-25" fill="#4a50a5"/><path d="M740 2032H598a6 6 0 01-6-7v-194a6 6 0 01 6-6H740a6 6 0 01 7 6v194a6 6 0 01-7 7" fill="#666bb1"/><path d="M682 1806a13 13 0 01-26 0h-13v25a13 13 0 00 13 13h26a13 13 0 00 13-13v-25" fill="#a29fd8"/><path d="M670 1780a26 26 0 10 25 26A26 26 0 00 670 1780m0 39a13 13 0 11 13-13 13 13 0 01-13 13" fill="#a29fd8"/><path d="M670 1974c-16 0-17-23-17-23v-20h32v20s0 23-16 23m36-62a6 6 0 11-7-6 6 6 0 01 7 6m-58 0a6 6 0 11-7-6 6 6 0 01 7 6" fill="#f7c495"/><path d="M698 1893c0-25-58-16-58 0v22a30 30 0 10 58 0" fill="#ffcd9f"/><path d="M670 1864a33 33 0 00-33 35v8l6 5v-16l40-13 12 13v16l7-5v-8c0-13-4-26-20-29l-3-6" fill="#462079"/><path d="M679 1912a3 3 0 10 3-3 3 3 0 00-3 3m-26 0a3 3 0 10 3-3 3 3 0 00-3 3" fill="#462079"/><path d="M685 1950a23 23 0 01-32 0 43 43 0 00-35 43H720c0-36-36-42-36-42" fill="#ea9c9c"/><path d="M805 2012a65 65 0 11-65-64 65 65 0 01 65 64" fill="#f6d046"/><path d="m770 1982-37 37-18-18-14 14 32 31 50-50" fill="#666bb1"/><path d="M2664 1055h-193a9 9 0 00-10 9V1310a9 9 0 00 10 10h193a9 9 0 00 10-10v-246a9 9 0 00-10-10" fill="#4a50a5"/><path d="m2470 1069 190-5 5 240-190 5" fill="#ea9c9c"/><path d="m2472 1306 2-240 190 1-3 240" fill="#c9c9c9"/><path d="M2474 1066h188v242h-188" fill="#666bb1"/><path d="M2622 1072h-110a1 1 0 01 0-1v-6a17 17 0 01 17-16h77a17 17 0 01 17 16v6" fill="#f6d046"/><path d="M2512 1066v5h110a1 1 0 00 1 0v-5" fill="#eab42d"/><path d="M2572 1030h-10a18 18 0 00-17 19 1 1 0 00 1 1h43a1 1 0 00 0-1 18 18 0 00-17-18m-4 16a6 6 0 11 6-6 6 6 0 01-6 6" fill="#f6d046"/><path d="M2583 1223h-22v-2h22l1 1v1m-30 0h-22l1-2h21l2 1-2 1" fill="#e6e6e6"/><g fill="#e6e6e6"><path d="M2514 1280a17 17 0 11 16-18 17 17 0 01-16 17m0-32a15 15 0 10 15 15 15 15 0 00-15-15"/><path d="M2514 1276a13 13 0 11 13-14 13 13 0 01-13 14m0-25a12 12 0 10 11 11 12 12 0 00-11-11"/><path d="M2510 1273a10 10 0 01-4-3l2-2a8 8 0 00 3 2zm6 0v-3a8 8 0 00 4-2l1 2a10 10 0 01-5 3m-8-17-2-1a10 10 0 01 5-3v2a8 8 0 00-3 2m12 0a8 8 0 00-4-2v-2a10 10 0 01 5 3zm2 6h-16 16m-4-3h-8 8m0 6h-8 8m100-140h-127a1 1 0 10 0 2h128a1 1 0 10 0-3m-80 22h-50v-2h50v2m0 15h-50v-2h50v2m-10-8h-40v-1h40v1m0 15h-40v-1h40v1m10 8h-50v-2h50v1m-10 8h-40v-2h40v2m-17 30H2490v-2h22v1m26 4H2490v-1h48v1m-17 8H2490v-2h31v2m-9 3H2490v-1h22v1m107 6h-130v2h130v-2m0-44h-130v1h130v-1m0 7h-130v2h130v-2m0 8h-130v1h130v-1"/></g><path d="M2650 1270h-1a120 120 0 00-15 3h-4a3 3 0 00-1 0v1h2v6h-6a5 5 0 00 0-3 4 4 0 00-2-4 8 8 0 00-5 0v-1h-1a13 13 0 00-6 6 13 13 0 00-10-2c-2 0-3 2-3 4 0 3 6 5 8 5a6 6 0 00 6-5l1 1a3 3 0 00 0 2l1 1a4 4 0 00 2 0 5 5 0 00 5 1l4-4h6l-1 3c-1 0-2 2 0 3l2-1a15 15 0 00 0-12 123 123 0 01 17-2v-1m-28 13a3 3 0 01-2 0 6 6 0 01-2 0 24 24 0 00 4-2 12 12 0 00 2-1 7 7 0 01-2 3m-6 0v-1m7-3h-5l2-2a7 7 0 01 3-1 3 3 0 01 2 0 7 7 0 01-2 3m0-6a5 5 0 01 2 2 10 10 0 00-7 0c-1 2-2 3-1 4h5v1a18 18 0 01-4 2 20 20 0 01-3-2 24 24 0 01 3-6v-1a7 7 0 01 5 0m-8 4v3a16 16 0 00-2-2 12 12 0 01 4-5zm-7 5a7 7 0 01-5 0 4 4 0 01-2-5 3 3 0 01 3-1 14 14 0 01 8 3 5 5 0 01-4 3m23 2 2-4-1 4c-1 0 0 0 0 0" fill="#e6e6e6"/><path d="M2542 1078h5c2 0 4 1 4 4s-2 4-4 4h-2v4h-3zm4 6c2 0 3 0 3-2s-1-2-3-2h-1v4zm0 1 2-2 4 7h-3zm7 0a5 5 0 01 4-4 4 4 0 01 4 4 6 6 0 01 0 1h-6a2 2 0 00 3 2 4 4 0 00 2 0v2a6 6 0 01-3 0 5 5 0 01-4-4m6-1c0-1 0-2-2-2a2 2 0 00-2 2zm4-4h2v1a4 4 0 01 3-1c2 0 3 1 3 4v5h-3v-7a2 2 0 00-2 1v6h-3zm10 6v-7h1v-2h3v2h2v2h-2v5a3 3 0 00 2 0v2a7 7 0 01-2 0c-2 0-3 0-3-3m6 0c0-1 1-2 5-3a1 1 0 00-1-1 5 5 0 00-3 0 8 8 0 01 3-2c3 0 4 1 4 4v5h-2a4 4 0 01-3 0 3 3 0 01-3-2m5 0v-2l-2 1v1a2 2 0 00 2 0m5 0v-10h3v10l1 2a4 4 0 01-1 0c-2 0-3 0-3-3m-64 14h3l4 12h-3l-2-6v-4a52 52 0 01-2 4l-1 6h-3zm-2 7h6v2h-6zm10 6a2 2 0 01 0-2 2 2 0 01 0-1 2 2 0 01 0-2 3 3 0 01 0-2 3 3 0 01 3-4 5 5 0 01 2 0h3v2h-1a2 2 0 01 0 2c0 2-1 3-4 3v1h2c2 0 3 0 3 2s-2 4-5 4c-2 0-4-1-4-3m7 0h-2a5 5 0 01-2-1c0 2 0 2 2 2l2-1m-1-7c0-1 0-2-2-2s0 0 0 2v1l2-1m5-4h2v2a3 3 0 01 3-2 3 3 0 01 1 0v3a4 4 0 00-1 0 2 2 0 00-2 1v6h-3zm7 5a5 5 0 01 4-5 4 4 0 01 4 5h-6a2 2 0 00 3 3 4 4 0 00 2 0 6 6 0 01-3 2 5 5 0 01-4-5m6 0c0-2 0-3-2-3a2 2 0 00-2 2zm3 0a5 5 0 01 5-5 4 4 0 01 4 5h-6a2 2 0 00 3 3 4 4 0 00 2 0 6 6 0 01-3 2 5 5 0 01-5-5m6 0-1-3a2 2 0 00-2 2zm5-5h2v2a4 4 0 01 3-2 3 3 0 01 2 2 4 4 0 01 3-2c2 0 3 2 3 4v6h-2v-6l-2-1a2 2 0 00-1 0v7h-3v-6l-1-1a2 2 0 00-2 0v7h-2zm15 5a5 5 0 01 4-5 4 4 0 01 4 5h-5a2 2 0 00 2 3 4 4 0 00 2 0h1a6 6 0 01-3 2 5 5 0 01-5-5m6 0-1-3a2 2 0 00-2 2zm4-5h3v2a4 4 0 01 3-2c2 0 3 2 3 4v6h-3v-6l-1-1a2 2 0 00-2 0v7h-3zm11 6v-8h3v3h2v2h-2v3l1 2a3 3 0 00 1 0v2a7 7 0 01-1 0c-3 0-4-1-4-4" fill="#fff"/><path d="M2579 1147h40v30h-40" fill="#f6d046"/><path d="M2594 1155h10v20h-10" fill="#fff"/><path d="M2607 1160h8v8h-8zm-25 0h8v8h-8" fill="#ea9c9c"/><path d="M2571 1173h52v6h-52" fill="#9490d8"/><path d="m2624 1149-25-14-26 14h51" fill="#f6d046"/><path d="M2682 1134h3a1 1 0 00 1 0l6-17a1 1 0 00 0-2h-3a1 1 0 00-2 0l-6 17a1 1 0 00 0 2" fill="#d6d6d6"/><path d="m2683 1122-14 7a5 5 0 00-3 3l-20 51 5-4 18-44a5 5 0 01 2-2l8-4" fill="#fff"/><path d="m2636 1243-10-5 24-56c6-14 29-55 29-55l10 5-24 56c-6 14-28 55-28 55" fill="#ea9c9c"/><path d="m2625 1260-5-3 6-19 10 5" fill="#ea9c9c"/><path d="M2620 1266a1 1 0 01-1 0l1-9 5 3-4 6m30-86 14 7 9-19-14-6-9 18" fill="#fff"/><path d="M2690 1117c-5-2-11 10-11 10l5 2 5 3s5-13 0-15" fill="#e0e0e0"/><g clip-path="url(#b)" transform="rotate(6-9235 25587)"><path d="m42 58 2-5 11-38S60 2 55 0L0 156a1 1 0 00 1 0l4-7 10-17 22-58 5-16" fill="#e5e5e5"/></g><path d="M2619 1265a1 1 0 00 2 0l-2-2v2" fill="#d6d6d6"/><path d="m2620 1266 2-1-2-1" fill="#d6d6d6"/><path d="M1510 438h236v15h-235zm253-99a29 29 0 00-29-28h-212a28 28 0 00-28 28v76h270zm0 76h-270v8a31 31 0 00 2 7h267a30 30 0 00 1-7v-8" fill="#666bb1"/><path d="m1523 454-12-22a17 17 0 01-2-7v-10h-15v10a32 32 0 00 4 14l12 22a29 29 0 00 25 14h26V460h-26a14 14 0 01-12-6zm225-39v10a16 16 0 01-1 7l-12 21a15 15 0 01-13 7h-26v15h26a30 30 0 00 26-14l12-22a31 31 0 00 3-14v-10" fill="#666bb1"/><path d="M1629 495a10 10 0 10 10 10 10 10 0 00-10-10zm0-32a10 10 0 10 10 11 10 10 0 00-10-10zm48 0a10 10 0 10 10 11 10 10 0 00-10-10zm5 32a10 10 0 10 10 10 10 10 0 00-10-10zm10 32a10 10 0 10 11 10 10 10 0 00-10-10zm22 32a10 10 0 10 10 10 10 10 0 00-10-10zM1580 463a10 10 0 10 10 11 10 10 0 00-10-10zm-5 32a10 10 0 10 10 10 10 10 0 00-10-10zm-10 32a10 10 0 10 10 10 10 10 0 00-10-10zm-22 32a10 10 0 10 10 10 10 10 0 00-10-10zm85-32a10 10 0 10 10 10 10 10 0 00-10-10zm0 32a10 10 0 10 10 10 10 10 0 00-10-10" fill="#ea9c9c"/><g fill="#f6d046"><path d="M1696 340h15v68h-15"/><path d="m1670 364 8-13 58 34-7 13"/><path d="m1678 397-7-12 58-34 7 13"/></g><path d="M1687 1290h-41l-10-125h60" fill="#f6d046"/><path d="M1671 1110h-10v-54a18 18 0 00-36 0v2h-10v-2a28 28 0 01 56 0" fill="#ea9c9c"/><path d="M1608 1060h22v7h-22zm82 105h-47a77 77 0 01-74-60h194a77 77 0 01-73 60" fill="#ea9c9c"/><path d="M1697 1104H1680V1090h20zm-61 0h15V1090h-20zm-150 101h63a42 42 0 01 10 30 42 42 0 01-10 28h-64a83 83 0 00 68 38c40 0 47-43 58-43a1038 1038 0 01 110 5 30 30 0 00 30-30 30 30 0 00-30-29c-3 0-56 7-111 7-10 0-16-43-57-44a83 83 0 00-67 38zm240 20a13 13 0 11-18 0 13 13 0 01 18 0" fill="#666bb1"/><g clip-path="url(#c)" transform="translate( 1450 1794)"><path d="M145 0a105 105 0 10 0 210h53V0zM250 0h-52v210H250a105 105 0 10 0-210" fill="#fff"/><path d="M145 20a90 90 0 10 0 178h53V20zM250 20h-52v178H250A90 90 0 00 250 20" fill="#666bb1"/><path d="M85 221a6 6 0 01-8 2 6 6 0 01-3-7l10-22a5 5 0 01 8-2l4 2a5 5 0 01 2 7zm226 0a6 6 0 00 7 2 6 6 0 00 3-7l-10-22a5 5 0 00-7-2l-5 2a5 5 0 00-1 7" fill="#6539a1"/><path d="M118 37c-4 0-5-2-6-6 0 4-2 5-6 6 4 0 5 2 6 6 0-4 2-5 6-6m35 0c-5 0-5-2-6-6-1 4-2 5-6 6 4 0 5 2 6 6 0-4 1-5 6-6m34 0c-4 0-5-2-6-6 0 4-1 5-6 6 5 0 5 2 6 6 1-4 2-5 6-6m35 0c-4 0-5-2-6-6 0 4-2 5-6 6 4 0 5 2 6 6 0-4 2-5 6-6m34 0c-4 0-5-2-5-6-1 4-2 5-6 6 4 0 5 2 6 6 0-4 1-5 5-6m35 0c-4 0-5-2-6-6 0 4-1 5-6 6 5 0 5 2 6 6 1-4 2-5 6-6M100 60c-5-1-5-2-6-6-1 4-2 5-6 6 4 0 5 2 6 6 0-4 1-5 6-6m34 0c-4-1-5-2-6-6 0 4-1 5-5 6 4 0 5 2 5 6 1-4 2-5 6-6M170 60c-4-1-5-2-6-6 0 4-2 5-6 6 4 0 5 2 6 6 1-4 2-5 6-6m35 0c-5-1-5-2-6-6-1 4-2 5-6 6 4 0 5 2 6 6 0-4 1-5 6-6m34 0c-4-1-5-2-6-6 0 4-1 5-5 6 4 0 5 2 5 6 1-4 2-5 6-6m35 0c-4-1-5-2-6-6 0 4-2 5-6 6 4 0 5 2 6 6 1-4 2-5 6-6m35 0c-5-1-5-2-6-6-1 4-2 5-6 6 4 0 5 2 6 6 0-4 1-5 6-6M83 83c-4-1-5-2-6-6 0 4-1 5-6 6 5 0 5 1 6 6 1-5 2-5 6-6m35 0c-4-1-5-2-6-6 0 4-2 5-6 6 4 0 5 1 6 6 0-5 2-5 6-6m35 0c-5-1-5-2-6-6-1 4-2 5-6 6 4 0 5 1 6 6 0-5 1-5 6-6m34 0c-4-1-5-2-6-6 0 4-1 5-6 6 5 0 5 1 6 6 1-5 2-5 6-6m35 0c-4-1-5-2-6-6 0 4-2 5-6 6 4 0 5 1 6 6 0-5 2-5 6-6m34 0c-4-1-5-2-5-6-1 4-2 5-6 6 4 0 5 1 6 6 0-5 1-5 5-6m35 0c-4-1-5-2-6-6 0 4-1 5-6 6 5 0 5 1 6 6 1-5 2-5 6-6m35 0c-4-1-5-2-6-6 0 4-2 5-6 6 4 0 5 1 6 6 0-5 2-5 6-6M100 106c-5-1-5-2-6-6-1 4-2 5-6 6 4 0 5 1 6 6 0-5 1-5 6-6m34 0c-4-1-5-2-6-6 0 4-1 5-5 6 4 0 5 1 5 6 1-5 2-5 6-6m35 0c-4-1-5-2-6-6 0 4-2 5-6 6 4 0 5 1 6 6 1-5 2-5 6-6m35 0c-5-1-5-2-6-6-1 4-2 5-6 6 4 0 5 1 6 6 0-5 1-5 6-6m34 0c-4-1-5-2-6-6 0 4-1 5-5 6 4 0 5 1 5 6 1-5 2-5 6-6m35 0c-4-1-5-2-6-6 0 4-2 5-6 6 4 0 5 1 6 6 1-5 2-5 6-6m35 0c-5-1-5-2-6-6-1 4-2 5-6 6 4 0 5 1 6 6 0-5 1-5 6-6" fill="#e2e2e2"/><path d="M311 123H198V180h94l18-14a98 98 0 00 20-20l6-8a29 29 0 00-25-14" fill="#4a50a5"/><path d="M145 176a105 105 0 01-93-57 13 13 0 00-5-5 20 20 0 00-7-1A105 105 0 00 145 210h53v-34" fill="#f6d046"/><path d="M349 113a15 15 0 00-5 5 105 105 0 01-93 58h-53V210H250a105 105 0 00 104-97 10 10 0 00-6 0" fill="#f6d046"/><path d="M85 123a29 29 0 00-23 12 105 105 0 00 83 40h53v-52" fill="#4a50a5"/><path d="m86 84 26-6a17 17 0 01 20 14l5 25a17 17 0 01-13 20l-26 5a17 17 0 01-20-13l-5-26a17 17 0 01 13-20" fill="#e2e2e2"/><path d="m129 123 3-26a17 17 0 01 19-15l26 3a17 17 0 01 15 19l-4 26a17 17 0 01-18 15l-26-3a17 17 0 01-15-20" fill="#ea9c9c"/><path d="M36 182h-1a43 43 0 00 0-5C34 157 30 95 70 72c-38 24-35 84-34 104a34 34 0 01 0 6" fill="#a29fd8"/><path d="M30 196c22-39-11-90-22-107a33 33 0 01-3-5 40 40 0 00 4 4c10 17 44 70 21 108" fill="#a29fd8"/><path d="m40 184-1-8a678 678 0 01-10-112H30a675 675 0 00 10 111v9" fill="#a29fd8"/><path d="M33 72C33 66 30 60 30 60s-3 5-3 10 0 12 3 12 3-5 3-11M9 85C6 80 2 77 0 78s0 6 5 10 7 9 8 8 0-6-4-10m64-17c-1-1-5 0-10 3s-5 6-4 8 5 0 8-3 7-6 6-8" fill="#a29fd8"/><path d="M52 218H50a27 27 0 00 8-20 26 26 0 00-16-24 137 137 0 00-4-28h3a2 2 0 10 0-4H28a2 2 0 10 0 4h3a136 136 0 00-3 28 26 26 0 00-17 25 27 27 0 00 8 20h-1a1 1 0 10 0 2h34a1 1 0 00 0-3" fill="#ea9c9c"/><path d="M52 218H50a27 27 0 00 8-20 26 26 0 00-16-24 137 137 0 00-4-28h3a2 2 0 10 0-4h-6v80h17a1 1 0 00 0-4" fill="#db8a8a"/><path d="M57 191a27 27 0 00-1-5H14a28 28 0 00-2 5" fill="#fff"/></g><path d="M3532 519 3500 480v-37h62V480zm69-113a13 13 0 11-13-12 13 13 0 01 13 12m-113 0a13 13 0 10-12 13 13 13 0 00 12-13" fill="#fac798"/><path d="M3588 369c0-48-112-31-112 0v44a56 56 0 10 112 0" fill="#ffcd9f"/><path d="M3532 313c-38 0-63 30-63 68v15l13 10v-30l75-26 25 25v31l12-10V380c0-25-6-50-37-56l-6-12" fill="#2c317e"/><path d="M3550 406a6 6 0 11 7 7 6 6 0 01-6-7m-50 0a6 6 0 10 6-6 6 6 0 00-6 6" fill="#2c317e"/><path d="m3532 556-31-75 30 7 32-7" fill="#fff"/><path d="m3563 481-31 75-31-75s-70 13-70 82h200c0-69-68-82-68-82" fill="#666bb1"/><path d="M3594 369v-6a56 56 0 00-56-57h-12a56 56 0 00-57 57v6h-12v19h150v-20" fill="#a29fd8"/><path d="M3513 300h38v69h-38" fill="#666bb1"/><path d="m3471 598 1-20H3450l1-23-22-1 2-23h-23l2-23-22-2v-22l-21-1V460h-21v-23l-21-1 1-23h-22V390l20-23 209 154-45 61" fill="#ea9c9c"/><path d="m3452 555-23-1 2-23h-22v-23l-21-2v-22l-21-1V460h-21v-23l-21-1 1-23h-22V390l7-8L3490 580l-1 2-17 16 1-20H3450" fill="#ea9c9c"/><path d="m3501 498 49 35a22 22 0 01 5 32l-35 48a21 21 0 01-30 5l-27-23 4-49zm-6 106a11 11 0 00 16-3l30-42a11 11 0 00-3-16 11 11 0 00-15 3l-30 42a11 11 0 00 2 16" fill="#f6d046"/><g clip-path="url(#d)" transform="translate( 3347 1034)"><path d="M280 267V125h-83v157c46 0 83-7 83-15" fill="#666bb1"/><path d="M115 125v142c0 8 37 15 83 15V125" fill="#474daa"/><path d="M284 105h11v7h-10" fill="#2c4048"/><path d="M100 105h11v7h-10" fill="#364e58"/><path d="M288 96c0-8-40-15-90-15s-90 7-90 15 40 15 90 15 90-6 90-15" fill="#ededed"/><path d="M197 170H270v74h-73" fill="#e58d8d"/><path d="M125 170h73v74h-73" fill="#ea9c9c"/><path d="M194 111h-32a324 324 0 01-23-3c-20-3-31-7-31-12V120c0 9 40 15 90 15v-23h-4" fill="#a29fd8"/><path d="m257 108-23 2h-17l-2 1h-17v23c50 0 90-7 90-15V96c0 5-12 9-30 12" fill="#9693c4"/><path d="M173 85a220 220 0 00-45 5 38 38 0 00-18 8 13 13 0 00 0 1c7 7 44 12 88 12V85a390 390 0 00-25 0" fill="#f6d046"/><path d="M270 90a194 194 0 00-40-4l-33-1V110c46 0 84-5 90-13A40 40 0 00 270 90" fill="#edc42f"/><path d="M108 96a5 5 0 00 2 4c9-7 45-12 88-12V80c-50 0-90 7-90 15m90-15v8c43 0 79 5 88 12a5 5 0 00 2-4c0-8-40-15-90-15" fill="#9693c4"/><path d="M177 18C160 20 130 28 111 50c-10 14-10 39-10 55v4h3v-4c0-16 0-40 10-52 18-22 48-30 64-32a150 150 0 01 20-1v-4a155 155 0 00-20 2" fill="#666bb1"/><path d="M295 72V70a56 56 0 00-21-30 122 122 0 00-77-24V20a118 118 0 01 74 22 53 53 0 01 20 30v37h4" fill="#666bb1"/><path d="M122 33a6 6 0 11 3-11L130 4l1-4a59 59 0 00-19 20c-16 30-11 44-17 66l-3 10a60 60 0 01-52 40 13 13 0 00-11 10L84 160" fill="#ea9c9c"/><path d="M135 163a60 60 0 01-23-60l3-10c8-22 19-32 21-65a59 59 0 00-4-28l-2 4-5 18a6 6 0 11-3 11L84 160l55 17a13 13 0 00-4-14" fill="#db8888"/><path d="m35 146-6-2-2 7v2l-3 8v3L20 170l7 2 48 14 8-26" fill="#a29fd8"/><path d="m30 168-7-3v1l-1 3v1l7 2L90 190v-5" fill="#666bb1"/><path d="m133 175-50-15-7 26 49 15 6 2 2-7v-2l3-9 1-2 2-6" fill="#a29fd8"/><path d="M6 222 20 170l55 16L60 238zM60 239l16-53 55 17-15 52" fill="#fff"/><path d="M13 224 30 172l8 3L20 227zm18 6 15-52 8 2L40 232zm17 5 16-52 8 2-16 52zm18 5 15-52 8 2-15 52zm18 5 15-52 8 3-15 52zm17 5 16-52 8 3-16 52" fill="#a29fd8" opacity=".3"/><path d="M26 251A13 13 0 01 0 250c0-7 15-22 15-22s12 17 11 24m45-20a50 50 0 01-17-14c-5-8-9-18-20-20a52 52 0 00-20 0l-8 26L80 245a17 17 0 00-10-13" fill="#f6d046"/><path d="m71 180-8-2v4l-1 2 8 2 59 17 1-5" fill="#666bb1"/></g><g transform="translate(-961-1420)"><circle fill="#ea9c9c" cx="140" cy="140" r="140" transform="translate( 3391 3208)"/><path d="M3537 3391a10 10 0 01-14 0l-50-46a10 10 0 01 7-18h100a10 10 0 01 6 18" fill="#666bb1"/></g><g transform="translate(-20-1420)"><circle fill="#ea9c9c" cx="140" cy="140" r="140" transform="translate( 3391 3208)"/><path d="M3525 3319a10 10 0 01 13 0l50 46a10 10 0 01-7 18h-100a10 10 0 01-6-18" fill="#666bb1"/></g><path d="M814 580H570V420l123-90 121 86" fill="#666bb1"/><path d="m830 450-138-92L555 450v-53l137-92L830 397" fill="#ea9c9c"/><g transform="translate( 548 403)"><path d="M21 177h150a23 23 0 00-30-30 39 39 0 00-47-32 32 32 0 00 0-3 33 33 0 00-65-8 40 40 0 00-8 73" fill="#f6d046"/><path d="M86 154a10 10 0 01-7-15L167 4a10 10 0 11 16 10L94 150a10 10 0 01-8 4" fill="#ffcd9f"/><path d="M21 130s23 47 75 47a293 293 0 00 38-54c2-4-48-29-48-29-33 40-65 37-65 37" fill="#fff"/><path d="M60 170a78 78 0 00 15 4A82 82 0 00 100 140a96 96 0 01-40 30zm17-40a77 77 0 01-45 17 99 99 0 00 10 10 80 80 0 00 35-26" fill="#a29fd8"/><path d="m86 94 10-11a10 10 0 01 11-2l30 18a9 9 0 01 4 12l-7 12" fill="#ffcd9f"/><circle fill="#f6d046" cx="19" cy="19" r="19" transform="translate( 7 37)"/><circle fill="#f6d046" cx="14" cy="14" r="14" transform="translate( 77 23)"/><circle fill="#f6d046" cx="9" cy="9" r="9" transform="translate( 40)"/><circle fill="#f6d046" cx="14" cy="14" r="14" transform="translate( 152 103)"/><circle fill="#f6d046" cx="9" cy="9" r="9" transform="translate( 166 70)"/></g><g clip-path="url(#e)" transform="translate( 2444 307)"><path d="m40 138-40-5V8L40 0v138" fill="#ea9c9c"/></g><g clip-path="url(#f)" transform="translate( 2484 307)"><path d="m49 129-35-3-14 2V0l30 4h4l7 2H50V130M19 2v10l16 2v-10L18 3" fill="#de8c8c"/></g><g clip-path="url(#g)" transform="translate( 2502 310)"><path d="M16 11 0 10V0l16 2v10" fill="#ffcd9f"/></g><g clip-path="url(#h)" transform="translate( 2507 343)"><path d="m47 92-1-10a7 7 0 00-2-5L24 60A327 327 0 00 0 30V0l35 3h3l27 2V90l-18 1M23 2v15h22V4L23 2" fill="#de8c8c"/></g><g clip-path="url(#i)" transform="translate( 2492 343)"><path d="M15 30a10 10 0 00 0-1s-2-3-15-5V2L15 0v30" fill="#ea9c9c"/></g><g clip-path="url(#j)" transform="translate( 2530 345)"><path d="M22 16 0 15V0l22 1v15" fill="#ffcd9f"/></g><path d="M2708 556h-93V423a13 13 0 01 13-14h57a13 13 0 01 13 10l24 70v53a13 13 0 01-14 14" fill="#f6d046"/><path d="M2695 483h-47a7 7 0 01-6-7v-47a7 7 0 01 6-6h35a7 7 0 01 7 4l11 35a7 7 0 01 0 2v12a7 7 0 01-6 7zm-253 73h173v-47H2430v33a13 13 0 00 13 14" fill="#a29fd8"/><path d="M2668 522a33 33 0 10 34 34 33 33 0 00-34-34zm-180 0a33 33 0 10 34 34 33 33 0 00-33-34" fill="#2c317e"/><path d="M2668 542a13 13 0 10 14 14 13 13 0 00-14-14zm-180 0a13 13 0 10 14 14 13 13 0 00-13-14" fill="#90a4ae"/><path d="M2429 370h173v140h-173" fill="#4a50a5"/><path d="M2562 476a7 7 0 01-7 7 7 7 0 01-7-7v-73a7 7 0 01 7-7 7 7 0 01 7 7zm-27 0a7 7 0 01-7 7 7 7 0 01-6-7v-73a7 7 0 01 7-7 7 7 0 01 6 7zm-26 0a7 7 0 01-7 7 7 7 0 01-7-7v-73a7 7 0 01 7-7 7 7 0 01 7 7zm-27 0a7 7 0 01-7 7 7 7 0 01-6-7v-73a7 7 0 01 6-7 7 7 0 01 7 7" fill="#9490d8"/><path d="M2429 496h173v13h-173zm0-127h173v14h-173" fill="#666bb1"/><path d="M2582 356a7 7 0 00-7 7v146h27V356zm-133 0h-20V510h26V363a7 7 0 00-6-7" fill="#666bb1"/><path d="M2535 496h27v13h-27zm-66 0h26v13H2470zm120-133a7 7 0 10 6 6 7 7 0 00-7-6zm0 126a7 7 0 10 6 7 7 7 0 00-7-7zm-147-126a7 7 0 10 7 6 7 7 0 00-7-6zm0 126a7 7 0 10 7 7 7 7 0 00-7-7" fill="#462079"/><path d="M645 2748v-2h-24v30H640a69 69 0 00 5-28" fill="#4a50a5"/><path d="M612 2676A80 80 0 00 690 2740a81 81 0 00 27-5 79 79 0 00 50-58H613" fill="#666bb1"/><path d="M720 2733a68 68 0 01-20 2c-34 0-68-12-78-57a18 18 0 01-19-16h-16a80 80 0 00 26 48l2 2a59 59 0 01 20 44 54 54 0 01-18 45h122a130 130 0 01-20-68" fill="#4a50a5"/><path d="M625 2660h-27c1 10 8 20 16 20h173v-20" fill="#4a50a5"/><path d="M652 2653v-90h-86l9 94c0 3 3 5 8 5h70" fill="#666bb1"/><path d="M561 2564h96a4 4 0 00 5-4v-11a4 4 0 00-5-4h-96a4 4 0 00-5 4v10a4 4 0 00 5 5" fill="#4a50a5"/><path d="M637 2662h158a20 20 0 00-17-8H637" fill="#666bb1"/><path d="M625 2747h14v-129c0-2-4-5-7-5s-7 3-7 5v129" fill="#ea9c9c"/><path d="M602 2760h60v-15h-18a2 2 0 01-2 2h-20a3 3 0 01-2-2h-18v15" fill="#de8c8c"/><path d="m660 2779-9-1a4 4 0 01-3-5 4 4 0 01 4-3l10 1V2760h-60v12l8-1a4 4 0 01 5 3 4 4 0 01-4 5h-7a32 32 0 00 5 12l4-6a4 4 0 01 6-1 4 4 0 01 0 6l-4 6a28 28 0 00 14 6v-10c0-2 0-3 3-3s3 1 3 4v9a29 29 0 00 12-5l-4-5a4 4 0 01 0-6 4 4 0 01 6 0l4 6a32 32 0 00 7-12" fill="#ea9c9c"/><path d="M780 2600a30 30 0 01-30-30 2 2 0 00-5 0 30 30 0 01-30 30 2 2 0 10 0 5 30 30 0 01 30 30 2 2 0 00 5 0 30 30 0 01 30-30 2 2 0 10 0-5zm-67 42a20 20 0 01-20-20 2 2 0 00-5 0 20 20 0 01-20 20 2 2 0 10 0 5 20 20 0 01 20 20 2 2 0 00 4 0 20 20 0 01 20-20 2 2 0 10 0-5" fill="#f6d046"/></g></svg>
